<svg width="316" height="174" viewBox="0 0 316 174" fill="none" xmlns="http://www.w3.org/2000/svg">
<g clip-path="url(#clip0_23_171)">
<path d="M16.0536 141.637C7.19203 141.637 0 148.857 0 157.818C0 166.779 7.19203 174 16.0536 174C24.9153 174 32.1073 166.779 32.1073 157.818C32.1715 148.857 24.9795 141.637 16.0536 141.637ZM16.0536 149.76C20.4202 149.76 24.0163 153.37 24.0163 157.754C24.0163 162.138 20.4202 165.748 16.0536 165.748C11.6871 165.748 8.09104 162.138 8.09104 157.754C8.09104 153.37 11.6871 149.76 16.0536 149.76Z" fill="#A2C858"/>
<path d="M282.544 10.4439C280.425 10.4439 278.499 9.41244 277.279 7.80073C275.481 5.4154 272.719 3.86816 269.701 3.86816H269.316C269.316 11.2176 275.224 17.1486 282.48 17.1486C289.736 17.1486 295.644 11.2176 295.644 3.86816H295.259C292.241 3.86816 289.479 5.35094 287.681 7.80073C286.525 9.41244 284.663 10.4439 282.544 10.4439Z" fill="#A2C858"/>
<path d="M131.19 0C131.19 6.5113 125.925 11.7977 119.439 11.7977C112.953 11.7977 107.688 6.5113 107.688 0H131.19Z" fill="#A2C858"/>
<path d="M9.24684 21.21C10.4027 16.117 12.9071 11.3463 16.6315 7.67164C23.053 1.28928 34.5474 -3.35244 50.9221 14.3119C77.8923 43.3871 77.5712 88.5149 50.9221 93.5435C24.9152 98.443 -3.91715 81.0366 9.24684 21.21Z" fill="#52A161"/>
<path d="M22.2182 33.2013C22.8603 30.3646 24.2088 27.7214 26.3279 25.6585C29.9239 22.1127 36.2812 19.534 45.3996 29.3332C60.3616 45.5147 60.169 70.5284 45.3996 73.365C30.9513 76.0727 14.8977 66.4024 22.2182 33.2013Z" fill="#A9CB5F"/>
<path d="M44.3549 79.3577C44.8083 79.1545 45.0118 78.6208 44.8094 78.1656C44.607 77.7104 44.0754 77.5061 43.622 77.7093C43.1686 77.9124 42.9651 78.4462 43.1675 78.9014C43.3698 79.3566 43.9015 79.5609 44.3549 79.3577Z" fill="#101112"/>
<path d="M49.6762 78.4602C50.1296 78.2571 50.3331 77.7233 50.1307 77.2681C49.9283 76.8129 49.3967 76.6086 48.9433 76.8118C48.4899 77.015 48.2864 77.5487 48.4887 78.0039C48.6911 78.4591 49.2227 78.6634 49.6762 78.4602Z" fill="#101112"/>
<path d="M44.6934 81.4237C44.6934 81.4237 48.9957 84.8405 50.2158 79.9409L44.6934 81.4237Z" fill="#101112"/>
<path d="M143.52 28.4948H127.466V57.7635H112.119V28.4948H96.0007V19.3403H143.584V28.4948H143.52Z" fill="#F9E8E1" stroke="#F9E8E1" stroke-miterlimit="10"/>
<path d="M140.951 49.3182C140.951 47.4486 141.722 45.7724 143.263 44.3541C144.804 42.9358 146.923 41.7754 149.62 41.0018C152.317 40.1637 155.399 39.7769 158.867 39.7769C160.472 39.7769 162.013 39.8413 163.49 40.0347C164.903 40.2282 166.187 40.486 167.215 40.8728V39.9703C167.215 38.6809 166.637 37.7139 165.545 37.1337C164.389 36.489 162.591 36.2311 160.087 36.2311C157.775 36.2311 155.592 36.489 153.601 37.0047C151.546 37.5205 149.491 38.2941 147.244 39.3256L142.942 32.9432C145.703 31.7183 148.657 30.8158 151.739 30.2356C154.821 29.6554 158.096 29.333 161.628 29.333C168.178 29.333 173.251 30.3 176.847 32.2985C180.443 34.2971 182.241 37.2626 182.241 41.1307V46.546C182.241 47.5131 182.434 48.1578 182.883 48.5446C183.333 48.9314 184.039 49.1248 185.066 49.1893V57.828C183.846 58.0214 182.69 58.1504 181.663 58.2148C180.571 58.2793 179.608 58.3438 178.773 58.3438C176.076 58.3438 174.086 58.0214 172.673 57.3123C171.26 56.6676 170.361 55.6361 169.976 54.3467L169.655 53.3152C167.793 54.9269 165.674 56.1518 163.298 57.0544C160.922 57.9569 158.289 58.3438 155.592 58.3438C152.895 58.3438 150.39 57.9569 148.207 57.1833C146.024 56.4097 144.29 55.3137 143.006 53.9599C141.593 52.5416 140.951 50.9944 140.951 49.3182ZM165.224 49.8984C165.802 49.6405 166.251 49.3182 166.637 48.9958C167.022 48.6735 167.215 48.3512 167.215 48.0288V46.0303C166.38 45.8369 165.417 45.6435 164.325 45.5146C163.233 45.3856 162.27 45.3212 161.435 45.3212C159.637 45.3212 158.16 45.6435 156.876 46.2237C155.656 46.8039 155.014 47.5131 155.014 48.4156C155.014 48.8669 155.207 49.3182 155.656 49.705C156.106 50.0918 156.684 50.4142 157.39 50.6076C158.096 50.801 158.995 50.9299 159.894 50.9299C160.793 50.9299 161.692 50.8654 162.72 50.672C163.683 50.4786 164.518 50.2207 165.224 49.8984Z" fill="#F9E8E1" stroke="#F9E8E1" stroke-miterlimit="10"/>
<path d="M207.349 58.3438C203.753 58.3438 200.157 57.957 196.689 57.1189C193.222 56.2808 190.268 55.1204 187.828 53.5731L192.965 47.2552C195.533 48.4157 198.038 49.3182 200.414 49.9629C202.79 50.6076 204.973 50.9299 206.899 50.9299C207.991 50.9299 208.826 50.8655 209.34 50.6721C209.853 50.4786 210.11 50.2208 210.11 49.7695C210.11 49.4472 209.917 49.1893 209.532 48.9959C209.147 48.8025 208.569 48.5446 207.734 48.3512C206.899 48.1578 205.872 47.8999 204.652 47.642C201.377 46.8684 198.68 46.1593 196.497 45.4501C194.313 44.8054 192.708 43.9673 191.616 43.0003C190.525 42.0333 190.011 40.7439 190.011 39.0678C190.011 37.1337 190.717 35.4575 192.13 33.9748C193.543 32.492 195.598 31.3316 198.23 30.4935C200.863 29.6554 204.074 29.2041 207.798 29.2041C210.56 29.2041 213.385 29.5264 216.21 30.1067C219.036 30.6869 221.733 31.7828 224.366 33.3301L218.715 39.5835C216.082 38.4875 213.899 37.6495 212.037 37.1982C210.239 36.7469 208.633 36.489 207.22 36.489C206.514 36.489 205.936 36.5535 205.422 36.618C204.909 36.7469 204.523 36.8758 204.267 37.0692C204.01 37.2626 203.881 37.585 203.881 37.9073C203.881 38.2297 204.074 38.552 204.459 38.8099C204.844 39.0678 205.422 39.2612 206.193 39.4546C206.964 39.648 207.991 39.8414 209.211 40.0992C212.807 40.8084 215.697 41.5176 217.944 42.2267C220.192 42.9359 221.861 43.8384 222.953 44.8699C224.045 45.9014 224.558 47.2552 224.558 48.8669C224.558 51.768 223.017 54.0889 219.935 55.7651C216.853 57.5057 212.614 58.3438 207.349 58.3438Z" fill="#F9E8E1" stroke="#F9E8E1" stroke-miterlimit="10"/>
<path d="M259.106 56.1519C257.757 56.5387 256.28 56.9255 254.739 57.2479C253.198 57.5702 251.593 57.8281 249.987 58.0215C248.382 58.2149 246.841 58.2794 245.3 58.2794C243.052 58.2794 240.997 58.0215 239.071 57.5058C237.209 56.99 235.667 56.1519 234.512 54.927C233.356 53.7666 232.842 52.1549 232.842 50.1564V37.3916H227.705V29.6554H232.842V20.6943H247.804V29.6554H255.895V37.3916H247.804V46.4817C247.804 47.3842 248.061 48.0289 248.639 48.4157C249.217 48.8025 249.987 48.9315 251.015 48.9315C251.721 48.9315 252.62 48.867 253.519 48.6736C254.482 48.4802 255.381 48.2868 256.345 48.0289L259.106 56.1519Z" fill="#F9E8E1" stroke="#F9E8E1" stroke-miterlimit="10"/>
<path d="M262.959 60.6645C264.179 60.9224 265.271 61.1803 266.298 61.3092C267.325 61.5026 268.224 61.5671 269.123 61.5671C270.215 61.5671 271.114 61.4382 271.885 61.1803C272.591 60.9224 273.169 60.4711 273.618 59.9554C274.068 59.3752 274.325 58.7305 274.389 57.8924L259.299 29.6553H274.646L282.544 47.4485L288.966 29.6553H302.9L288.902 61.2448C288.131 63.0499 286.847 64.6616 285.049 66.0154C283.251 67.3692 281.132 68.4652 278.691 69.2388C276.251 70.0124 273.554 70.3993 270.729 70.3993C269.445 70.3993 268.096 70.3348 266.812 70.1414C265.527 69.948 264.243 69.6901 263.023 69.3678V60.6645H262.959Z" fill="#F9E8E1" stroke="#F9E8E1" stroke-miterlimit="10"/>
<path d="M304.955 66.2734L307.78 57.7636H303.285V47.8354H315.679V57.828L311.441 66.3379H304.955V66.2734Z" fill="#F9E8E1" stroke="#F9E8E1" stroke-miterlimit="10"/>
<path d="M50.5368 114.302H35.5748V98.6365C35.5748 97.2826 35.1253 96.2511 34.2263 95.6709C33.3273 95.0262 32.1715 94.7684 30.823 94.7684C30.1808 94.7684 29.4102 94.8973 28.5112 95.2196C27.6122 95.542 26.7132 95.9933 25.8784 96.5735C25.0436 97.1537 24.4015 97.8628 23.8878 98.6365V114.367H8.86157V74.8477H23.8236V90.5135C25.3005 88.9662 27.2269 87.8058 29.6029 87.0322C31.9788 86.2585 34.6116 85.8073 37.5013 85.8073C40.4552 85.8073 42.7669 86.1296 44.5007 86.7743C46.2345 87.419 47.5188 88.2571 48.3535 89.2886C49.1883 90.3201 49.7663 91.416 50.0231 92.5764C50.28 93.7369 50.4726 94.8328 50.4726 95.8643V114.302H50.5368Z" fill="#F9E8E1" stroke="#F9E8E1" stroke-miterlimit="10"/>
<path d="M78.4702 114.818C74.8742 114.818 71.5993 114.431 68.7738 113.657C65.9484 112.884 63.5725 111.852 61.646 110.563C59.7196 109.274 58.2426 107.726 57.2794 106.05C56.252 104.374 55.8025 102.569 55.8025 100.635C55.8025 97.9272 56.6373 95.4774 58.3711 93.221C60.1049 90.9646 62.6735 89.1595 66.0126 87.8057C69.3518 86.4518 73.5257 85.7427 78.4702 85.7427C83.4148 85.7427 87.5245 86.3874 90.9279 87.7412C94.267 89.095 96.8356 90.9001 98.5694 93.0921C100.303 95.284 101.138 97.6693 101.138 100.313C101.138 100.828 101.074 101.408 101.01 101.924C100.945 102.504 100.817 102.956 100.753 103.407H71.6635C71.7919 104.374 72.1772 105.148 72.8836 105.728C73.5899 106.308 74.4889 106.759 75.5806 107.017C76.6722 107.275 77.7639 107.404 78.9197 107.404C80.5251 107.404 82.0663 107.146 83.5432 106.63C84.9559 106.115 85.9191 105.406 86.4329 104.503L99.1473 107.017C98.0557 108.564 96.5145 109.854 94.5239 111.014C92.5332 112.175 90.2215 113.077 87.5245 113.722C84.8275 114.496 81.8094 114.818 78.4702 114.818ZM71.4066 97.218H85.0843C84.9559 96.3155 84.5706 95.6063 83.9285 94.9616C83.3505 94.3814 82.5158 93.8657 81.5525 93.5433C80.5893 93.221 79.4977 93.0276 78.2134 93.0276C76.9291 93.0276 75.8374 93.221 74.8742 93.5433C73.911 93.8657 73.1404 94.3814 72.4983 94.9616C71.9204 95.6063 71.5351 96.3155 71.4066 97.218Z" fill="#F9E8E1" stroke="#F9E8E1" stroke-miterlimit="10"/>
<path d="M104.092 105.857C104.092 103.987 104.862 102.311 106.404 100.893C107.945 99.4744 110.064 98.314 112.761 97.5403C115.458 96.7022 118.54 96.3154 122.008 96.3154C123.613 96.3154 125.154 96.3799 126.631 96.5733C128.044 96.7667 129.328 97.0246 130.356 97.4114V96.5733C130.356 95.2839 129.778 94.3169 128.686 93.7367C127.53 93.092 125.732 92.8341 123.228 92.8341C120.916 92.8341 118.733 93.092 116.742 93.6078C114.687 94.1235 112.632 94.8971 110.385 95.9286L106.082 89.5463C108.844 88.3214 111.798 87.4188 114.88 86.8386C117.962 86.2584 121.237 85.936 124.769 85.936C131.319 85.936 136.392 86.9031 139.988 88.9016C143.584 90.9001 145.382 93.8656 145.382 97.7337V103.149C145.382 104.116 145.574 104.761 146.024 105.148C146.473 105.534 147.18 105.728 148.207 105.792V114.431C146.987 114.624 145.831 114.753 144.804 114.818C143.712 114.882 142.749 114.947 141.914 114.947C139.217 114.947 137.227 114.624 135.814 113.915C134.401 113.271 133.502 112.239 133.117 110.95L132.796 109.918C130.933 111.53 128.814 112.755 126.438 113.657C124.063 114.56 121.43 114.947 118.733 114.947C116.036 114.947 113.531 114.56 111.348 113.786C109.165 113.013 107.431 111.917 106.147 110.563C104.734 109.08 104.092 107.533 104.092 105.857ZM128.365 106.437C128.943 106.179 129.392 105.857 129.778 105.534C130.163 105.212 130.356 104.89 130.356 104.567V102.569C129.521 102.375 128.558 102.182 127.466 102.053C126.374 101.924 125.411 101.86 124.576 101.86C122.778 101.86 121.301 102.182 120.017 102.762C118.797 103.342 118.155 104.052 118.155 104.954C118.155 105.405 118.347 105.857 118.797 106.244C119.246 106.63 119.824 106.953 120.531 107.146C121.237 107.34 122.136 107.468 123.035 107.468C123.934 107.468 124.833 107.404 125.861 107.211C126.824 107.017 127.659 106.759 128.365 106.437Z" fill="#F9E8E1" stroke="#F9E8E1" stroke-miterlimit="10"/>
<path d="M153.537 74.7188H168.499V102.956C168.499 103.987 168.82 104.825 169.462 105.341C170.104 105.921 171.068 106.179 172.352 106.179C172.994 106.179 173.636 106.115 174.407 105.986C175.113 105.857 175.82 105.664 176.462 105.406L178.324 113.013C176.526 113.593 174.535 114.044 172.288 114.367C170.04 114.689 167.921 114.883 165.931 114.883C161.949 114.883 158.867 114.173 156.684 112.755C154.5 111.337 153.473 109.274 153.473 106.631V74.7188H153.537Z" fill="#F9E8E1" stroke="#F9E8E1" stroke-miterlimit="10"/>
<path d="M210.11 112.626C208.762 113.013 207.285 113.4 205.744 113.722C204.202 114.044 202.597 114.302 200.992 114.496C199.386 114.689 197.845 114.753 196.304 114.753C194.057 114.753 192.002 114.496 190.075 113.98C188.213 113.464 186.672 112.626 185.516 111.401C184.36 110.241 183.846 108.629 183.846 106.63V93.8658H178.709V86.1296H183.846V77.1685H198.808V86.1296H206.899V93.8658H198.808V102.956C198.808 103.858 199.065 104.503 199.643 104.89C200.221 105.277 200.992 105.406 202.019 105.406C202.725 105.406 203.624 105.341 204.524 105.148C205.487 104.954 206.386 104.761 207.349 104.503L210.11 112.626Z" fill="#F9E8E1" stroke="#F9E8E1" stroke-miterlimit="10"/>
<path d="M256.345 114.302H241.383V98.6365C241.383 97.2826 240.933 96.2511 240.034 95.6709C239.135 95.0262 237.979 94.7684 236.631 94.7684C235.989 94.7684 235.218 94.8973 234.319 95.2196C233.42 95.542 232.521 95.9933 231.686 96.5735C230.852 97.1537 230.209 97.8628 229.696 98.6365V114.367H214.734V74.8477H229.696V90.5135C231.173 88.9662 233.099 87.8058 235.475 87.0322C237.851 86.2585 240.484 85.8073 243.373 85.8073C246.327 85.8073 248.639 86.1296 250.373 86.7743C252.107 87.419 253.391 88.2571 254.226 89.2886C255.06 90.3201 255.638 91.416 255.895 92.5764C256.152 93.7369 256.345 94.8328 256.345 95.8643V114.302Z" fill="#F9E8E1" stroke="#F9E8E1" stroke-miterlimit="10"/>
<path d="M262.959 117.139C264.179 117.397 265.271 117.654 266.298 117.783C267.325 117.977 268.224 118.041 269.123 118.041C270.215 118.041 271.114 117.912 271.885 117.654C272.591 117.397 273.169 116.945 273.618 116.43C274.068 115.849 274.325 115.205 274.389 114.367L259.363 86.1294H274.71L282.608 103.858L288.966 86.1294H302.9L288.902 117.719C288.131 119.524 286.847 121.136 285.049 122.49C283.251 123.843 281.132 124.939 278.691 125.713C276.251 126.487 273.554 126.873 270.729 126.873C269.444 126.873 268.096 126.809 266.812 126.615C265.527 126.422 264.243 126.164 263.023 125.842V117.139H262.959Z" fill="#F9E8E1" stroke="#F9E8E1" stroke-miterlimit="10"/>
<path d="M304.955 122.812L307.78 114.302H303.285V104.31H315.679V114.302L311.441 122.812H304.955Z" fill="#F9E8E1" stroke="#F9E8E1" stroke-miterlimit="10"/>
<path d="M57.2151 170.777L43.2805 142.668H58.6278L66.0125 161.751L73.5256 142.668H87.4602L73.5256 170.777H57.2151Z" fill="#F9E8E1" stroke="#F9E8E1" stroke-miterlimit="10"/>
<path d="M88.1665 162.331C88.1665 160.461 88.9371 158.785 90.4782 157.367C92.0194 155.949 94.1385 154.788 96.8355 154.014C99.5325 153.176 102.615 152.79 106.082 152.79C107.688 152.79 109.229 152.854 110.706 153.047C112.119 153.241 113.403 153.499 114.43 153.886V153.047C114.43 151.758 113.852 150.791 112.761 150.211C111.605 149.566 109.807 149.308 107.302 149.308C104.991 149.308 102.807 149.566 100.817 150.082C98.8261 150.598 96.707 151.371 94.4595 152.403L90.1572 146.02C92.9184 144.795 95.8723 143.893 98.9546 143.313C102.037 142.733 105.312 142.41 108.844 142.41C115.393 142.41 120.466 143.377 124.062 145.376C127.658 147.374 129.456 150.34 129.456 154.208V159.623C129.456 160.59 129.649 161.235 130.099 161.622C130.548 162.009 131.254 162.202 132.282 162.266V170.905C131.062 171.099 129.906 171.228 128.879 171.292C127.787 171.356 126.824 171.421 125.989 171.421C123.292 171.421 121.301 171.099 119.889 170.389C118.476 169.745 117.577 168.713 117.191 167.424L116.87 166.392C115.008 168.004 112.889 169.229 110.513 170.132C108.073 170.97 105.504 171.421 102.807 171.421C100.046 171.421 97.6061 171.034 95.4228 170.26C93.2395 169.487 91.5057 168.391 90.2214 167.037C88.8086 165.554 88.1665 164.007 88.1665 162.331ZM112.44 162.911C113.018 162.653 113.467 162.331 113.852 162.009C114.238 161.686 114.43 161.364 114.43 161.042V159.043C113.595 158.85 112.632 158.656 111.541 158.527C110.449 158.398 109.486 158.334 108.651 158.334C106.853 158.334 105.376 158.656 104.092 159.236C102.872 159.817 102.229 160.526 102.229 161.428C102.229 161.88 102.422 162.331 102.872 162.718C103.321 163.104 103.899 163.427 104.605 163.62C105.312 163.814 106.211 163.943 107.11 163.943C108.009 163.943 108.908 163.878 109.935 163.685C110.963 163.491 111.733 163.233 112.44 162.911Z" fill="#F9E8E1" stroke="#F9E8E1" stroke-miterlimit="10"/>
<path d="M166.059 151.049C163.169 151.049 160.536 151.242 158.16 151.694C155.785 152.145 154.051 152.854 152.895 153.886V170.776H137.933V142.668H151.611V147.697C153.088 145.763 154.95 144.28 157.133 143.313C159.316 142.281 161.692 141.766 164.132 141.766C164.71 141.766 165.096 141.766 165.352 141.766C165.609 141.766 165.802 141.766 165.995 141.83V151.049H166.059Z" fill="#F9E8E1" stroke="#F9E8E1" stroke-miterlimit="10"/>
<path d="M171.003 139.896V131.257H185.965V139.896H171.003ZM171.003 170.776V142.281H185.965V170.776H171.003Z" fill="#F9E8E1" stroke="#F9E8E1" stroke-miterlimit="10"/>
<path d="M214.284 171.356C210.688 171.356 207.413 170.97 204.588 170.196C201.762 169.422 199.386 168.391 197.46 167.102C195.533 165.812 194.056 164.265 193.093 162.589C192.066 160.913 191.616 159.107 191.616 157.173C191.616 154.466 192.451 152.016 194.185 149.76C195.919 147.503 198.487 145.698 201.826 144.344C205.165 142.99 209.339 142.281 214.284 142.281C219.228 142.281 223.338 142.926 226.742 144.28C230.081 145.634 232.649 147.439 234.383 149.631C236.117 151.823 236.952 154.208 236.952 156.851C236.952 157.367 236.887 157.947 236.823 158.463C236.759 159.043 236.631 159.494 236.566 159.946H207.477C207.606 160.913 207.991 161.686 208.697 162.266C209.404 162.847 210.303 163.298 211.394 163.556C212.486 163.814 213.578 163.943 214.733 163.943C216.339 163.943 217.88 163.685 219.357 163.169C220.77 162.653 221.733 161.944 222.247 161.042L234.961 163.556C233.869 165.103 232.328 166.392 230.338 167.553C228.347 168.713 226.035 169.616 223.338 170.261C220.641 170.97 217.623 171.356 214.284 171.356ZM207.156 153.692H220.898C220.77 152.79 220.384 152.08 219.742 151.436C219.164 150.856 218.329 150.34 217.366 150.017C216.403 149.695 215.311 149.502 214.027 149.502C212.743 149.502 211.651 149.695 210.688 150.017C209.725 150.34 208.954 150.856 208.312 151.436C207.734 152.08 207.349 152.854 207.156 153.692Z" fill="#F9E8E1" stroke="#F9E8E1" stroke-miterlimit="10"/>
<path d="M239.97 156.722C239.97 153.95 240.741 151.5 242.282 149.308C243.823 147.117 245.942 145.376 248.703 144.151C251.464 142.926 254.547 142.281 258.078 142.281C260.775 142.281 263.216 142.733 265.463 143.571C267.711 144.409 269.444 145.569 270.6 147.052V131.257H285.562V159.43C285.562 160.397 285.755 161.106 286.204 161.493C286.654 161.88 287.36 162.073 288.388 162.138V170.776C285.819 171.163 283.7 171.292 282.095 171.292C279.59 171.292 277.6 170.97 276.123 170.325C274.646 169.68 273.683 168.713 273.297 167.36L272.976 166.328C271.564 168.069 269.637 169.358 267.197 170.132C264.757 170.905 262.188 171.292 259.491 171.292C256.666 171.292 254.033 170.905 251.657 170.196C249.281 169.487 247.162 168.456 245.428 167.166C243.694 165.877 242.346 164.33 241.383 162.524C240.419 160.848 239.97 158.85 239.97 156.722ZM270.665 159.881V154.982C270.215 154.208 269.573 153.499 268.738 152.854C267.903 152.21 267.004 151.758 266.041 151.436C265.078 151.114 264.05 150.92 262.959 150.92C261.867 150.92 260.84 151.049 259.941 151.371C259.042 151.694 258.207 152.145 257.565 152.661C256.923 153.177 256.345 153.886 255.959 154.595C255.574 155.304 255.381 156.078 255.381 156.916C255.381 157.754 255.574 158.592 255.959 159.237C256.345 159.946 256.923 160.526 257.629 161.042C258.335 161.557 259.234 161.944 260.198 162.202C261.225 162.46 262.317 162.589 263.537 162.589C264.243 162.589 264.949 162.524 265.592 162.396C266.234 162.267 266.812 162.073 267.39 161.88C267.968 161.686 268.545 161.364 269.059 160.977C269.701 160.719 270.215 160.333 270.665 159.881Z" fill="#F9E8E1" stroke="#F9E8E1" stroke-miterlimit="10"/>
<path d="M297.827 154.53V132.031H312.789V154.53H297.827ZM297.827 170.776V160.784H312.789V170.776H297.827Z" fill="#F9E8E1" stroke="#F9E8E1" stroke-miterlimit="10"/>
</g>
<defs>
<clipPath id="clip0_23_171">
<rect width="316" height="174" fill="white"/>
</clipPath>
</defs>
</svg>
