<svg width="201" height="191" viewBox="0 0 201 191" fill="none" xmlns="http://www.w3.org/2000/svg">
<g clip-path="url(#clip0_1_271)">
<path d="M87.5017 32.8143C87.5017 32.8143 95.9184 25.7891 100.634 39.4805C105.349 53.1719 103.354 65.229 102.752 66.8012C102.151 68.3735 112.295 28.274 116.327 22.5525C120.36 16.8311 132.952 25.2716 130.61 39.3756C128.268 53.4797 128.85 44.9617 128.85 44.9617C128.85 44.9617 135.427 41.45 136.723 49.621C136.723 49.621 151.002 36.8064 163.558 44.0438C176.115 51.2812 162.21 66.1233 162.21 66.1233C162.21 66.1233 173.094 72.4982 167.216 78.3806C167.216 78.3806 153.744 85.3014 148.721 85.0109C143.697 84.7204 158.622 85.0401 151.401 94.33C144.18 103.62 130.769 108.205 128.134 116.13C128.134 116.13 131.553 121.651 126.258 127.202C120.962 132.754 111.968 132.738 104.084 149.047C96.1997 165.357 82.41 183.475 72.823 184.697L61.8505 182.233C61.8505 182.233 50.3489 152.386 66.5915 122.051C66.5915 122.051 81.3798 98.8866 84.3412 79.4309C87.3026 59.9753 73.9706 47.1462 87.5017 32.8143Z" fill="#F8D147"/>
</g>
<defs>
<clipPath id="clip0_1_271">
<rect width="117" height="164" fill="white" transform="translate(133.836) rotate(54.6934)"/>
</clipPath>
</defs>
</svg>
