<svg id="Слой_1" data-name="Слой 1" xmlns="http://www.w3.org/2000/svg" viewBox="0 0 250.19 228.89"><defs><style>.cls-1{fill:#52a161;}.cls-2{fill:#182927;}.cls-3{fill:#e8ab49;}</style></defs><title>_GF_site</title><circle class="cls-1" cx="119.61" cy="114.45" r="109.63"/><path class="cls-2" d="M134.26,54.56c-1.14,6.64-3.15,10.87-.95,13.47s9.19,12.69,9.19,12.69l-14,8.11-20.72-4.56,2.8-13.61s4.18-3.62,5.89-4.44c.59-.28.8-2.71,1.44-5.92a15.08,15.08,0,0,1,10.13-11.55C131.88,47.58,135.38,48,134.26,54.56Z"/><path class="cls-3" d="M74.93,81.17s9.44-22.27,28-17.68c0,0,11,2.44,11.42,12.83s-3.14-11.26,16.51-4c0,0,3.95,1.79,5.71,3.91s3.29-5.79,16.49,1.4,14.33,21.73,11.59,43.92-14.75,44.25-25.14,47.25-15.11.23-16.61.1-6.63,7-16.64,5.49-15.94-7.82-20.59-26.76S73.16,130,70.25,115.91,74.93,81.17,74.93,81.17Z"/></svg>