<svg id="Слой_1" data-name="Слой 1" xmlns="http://www.w3.org/2000/svg" xmlns:xlink="http://www.w3.org/1999/xlink" viewBox="0 0 250.19 228.89"><defs><style>.cls-1{fill:none;}.cls-2{fill:#182927;}.cls-3{clip-path:url(#clip-path);}.cls-4{fill:#eab6d2;}</style><clipPath id="clip-path"><path class="cls-1" d="M201.81,221.46H48.39a30.4,30.4,0,0,1-30.31-30.31V37.74A30.4,30.4,0,0,1,48.39,7.43H201.81a30.4,30.4,0,0,1,30.31,30.31V191.16A30.4,30.4,0,0,1,201.81,221.46Z"/></clipPath></defs><title>_GF_site</title><path class="cls-2" d="M201.81,221.46H48.39a30.4,30.4,0,0,1-30.31-30.31V37.74A30.4,30.4,0,0,1,48.39,7.43H201.81a30.4,30.4,0,0,1,30.31,30.31V191.16A30.4,30.4,0,0,1,201.81,221.46Z"/><g class="cls-3"><path class="cls-4" d="M99.86,240.62s102-86.63,111.49-116-3.27-64.28-39.56-75.52S99.88,75.36,99.88,75.36h-.09S64.17,37.87,27.88,49.1s-49.06,46.14-39.56,75.52S99.73,240.5,99.73,240.5Z"/></g></svg>