<svg id="Слой_1" data-name="Слой 1" xmlns="http://www.w3.org/2000/svg" viewBox="0 0 250.19 228.89"><defs><style>.cls-1{fill:#a2c858;}.cls-2,.cls-3{fill:none;stroke:#182927;stroke-linecap:round;stroke-miterlimit:10;}.cls-2{stroke-width:7px;}.cls-3{stroke-width:3px;}</style></defs><title>_GF_site</title><circle class="cls-1" cx="123.65" cy="30.13" r="24.68" transform="translate(-1.89 9.23) rotate(-4.24)"/><circle class="cls-1" cx="81.21" cy="40.79" r="24.68" transform="translate(-2.79 6.12) rotate(-4.24)"/><circle class="cls-1" cx="50.27" cy="71.28" r="24.68" transform="translate(-5.13 3.91) rotate(-4.24)"/><circle class="cls-1" cx="40.14" cy="112.13" r="24.68" transform="translate(-8.18 3.27) rotate(-4.24)"/><circle class="cls-1" cx="50.18" cy="154.62" r="24.68" transform="translate(-11.29 4.13) rotate(-4.24)"/><circle class="cls-1" cx="80.81" cy="187.43" r="24.68" transform="translate(-13.64 6.49) rotate(-4.24)"/><circle class="cls-1" cx="122.37" cy="198.76" r="24.68" transform="translate(-14.36 9.59) rotate(-4.24)"/><circle class="cls-1" cx="165.74" cy="190.73" r="24.68" transform="translate(-65.67 292.21) rotate(-72.69)"/><circle class="cls-1" cx="196.41" cy="156.54" r="24.68" transform="translate(-11.48 297.47) rotate(-72.69)"/><circle class="cls-1" cx="210.05" cy="118.02" r="24.68" transform="translate(34.87 283.43) rotate(-72.69)"/><circle class="cls-1" cx="200.76" cy="75.52" r="24.68" transform="translate(68.92 244.72) rotate(-72.69)"/><circle class="cls-1" cx="168.16" cy="41.72" r="24.68" transform="matrix(0.3, -0.95, 0.95, 0.3, 78.29, 189.85)"/><circle class="cls-1" cx="125.22" cy="113.38" r="75.64" transform="translate(-8.04 9.57) rotate(-4.24)"/><polyline class="cls-2" points="121.94 69.28 121.94 121.82 165.74 156.16"/><line class="cls-3" x1="123.31" y1="29.53" x2="123.31" y2="44.99"/><line class="cls-3" x1="63.16" y1="59.1" x2="74.09" y2="70.04"/><line class="cls-3" x1="66.72" y1="169" x2="77.65" y2="158.07"/><line class="cls-3" x1="174.17" y1="71.7" x2="185.11" y2="60.77"/><line class="cls-3" x1="123.31" y1="180.16" x2="123.31" y2="195.62"/><line class="cls-3" x1="53.57" y1="117.18" x2="38.11" y2="117.18"/><line class="cls-3" x1="208.62" y1="117.18" x2="193.16" y2="117.18"/></svg>