<svg id="Слой_1" data-name="Слой 1" xmlns="http://www.w3.org/2000/svg" xmlns:xlink="http://www.w3.org/1999/xlink" viewBox="0 0 250.19 228.89"><defs><style>.cls-1{fill:none;}.cls-2{fill:#a2c858;}.cls-3{fill:#182927;}.cls-4{clip-path:url(#clip-path);}</style><clipPath id="clip-path"><rect class="cls-1" x="22.01" y="44.69" width="196.33" height="156.02"/></clipPath></defs><title>_GF_site</title><path class="cls-2" d="M199.38,217.76H51.27A29.35,29.35,0,0,1,22,188.5V40.39A29.35,29.35,0,0,1,51.27,11.13H199.38a29.35,29.35,0,0,1,29.26,29.26V188.5A29.35,29.35,0,0,1,199.38,217.76Z"/><path class="cls-3" d="M206.4,162a9.4,9.4,0,0,1-9.4-9.4V83.48H127.93a9.4,9.4,0,1,1,0-18.8H198a17.82,17.82,0,0,1,17.8,17.79v70.08A9.4,9.4,0,0,1,206.4,162ZM198,83.48h0Z"/><g class="cls-4"><path class="cls-3" d="M96.35,190h-.18a17.31,17.31,0,0,1-12.4-5.35L40,139.17,29,151.3a9.4,9.4,0,1,1-13.91-12.66L27.38,125.1a17.09,17.09,0,0,1,12.36-5.56,16.73,16.73,0,0,1,12.5,5.22l44.12,45.89L197.15,69.87a9.4,9.4,0,0,1,13.29,13.29L108.68,184.94A17.31,17.31,0,0,1,96.35,190Z"/></g></svg>