<svg id="Слой_1" data-name="Слой 1" xmlns="http://www.w3.org/2000/svg" viewBox="0 0 250.19 228.89"><defs><style>.cls-1{fill:#eab6d2;}.cls-2{fill:#da6f59;}</style></defs><title>_GF_site</title><polyline class="cls-1" points="35.86 113.82 15.67 95.14 40.9 84.04 28.29 58.81 55.54 58.81 51.5 28.54 81.27 37.12 84.3 10.37 107.51 27.02 122.65 4.82 137.79 28.54 160.5 10.88 164.53 38.13 192.79 28.54 188.25 56.8 216.51 57.8 203.39 83.54 230.63 93.13 208.43 115.33"/><polyline class="cls-1" points="208.62 115.27 228.81 133.94 203.57 145.04 216.19 170.27 188.94 170.27 192.98 200.54 163.21 191.97 160.18 218.71 136.97 202.06 121.83 224.26 106.69 200.54 83.98 218.21 79.95 190.96 51.69 200.54 56.23 172.29 27.97 171.28 41.09 145.54 13.84 135.95 36.05 113.75"/><path class="cls-2" d="M123.17,161.56s43.42-36.88,47.46-49.39S169.24,84.81,153.79,80s-30.61,11.18-30.61,11.18h0S108,75.25,92.52,80,71.63,99.67,75.68,112.18s47.43,49.33,47.43,49.33Z"/></svg>