<svg id="Слой_1" data-name="Слой 1" xmlns="http://www.w3.org/2000/svg" xmlns:xlink="http://www.w3.org/1999/xlink" viewBox="0 0 250.19 228.89"><defs><style>.cls-1{fill:none;}.cls-2{fill:#da6f59;}.cls-3{clip-path:url(#clip-path);}.cls-4{fill:#f2dfd5;}</style><clipPath id="clip-path"><path class="cls-1" d="M206.09,221.46H52.66a30.4,30.4,0,0,1-30.31-30.31V37.74A30.4,30.4,0,0,1,52.66,7.43H206.09a30.4,30.4,0,0,1,30.31,30.31V191.16A30.4,30.4,0,0,1,206.09,221.46Z"/></clipPath></defs><title>_GF_site</title><path class="cls-2" d="M206.09,221.46H52.66a30.4,30.4,0,0,1-30.31-30.31V37.74A30.4,30.4,0,0,1,52.66,7.43H206.09a30.4,30.4,0,0,1,30.31,30.31V191.16A30.4,30.4,0,0,1,206.09,221.46Z"/><g class="cls-3"><path class="cls-4" d="M91.92,123.47v19H68.79l-7.08,45.8H41.62l7.08-45.8H29.43l-7,45.8H2.35L9.5,142.5H-13.2v-19H12.47l3-18H-6.88v-19H18.24L24.85,44.1H44.43L38.27,86.47H57.36L63.91,44.1H84L77.45,86.47H97.65v19H74.51l-2.58,18Zm-37.5-18H35.07l-2.74,18H51.64Z"/><path class="cls-4" d="M138.22,47.64h42.07V188.31H152.38V72.79H122Z"/></g></svg>