<svg id="Слой_1" data-name="Слой 1" xmlns="http://www.w3.org/2000/svg" viewBox="0 0 250.19 228.89"><defs><style>.cls-1{fill:#182927;}.cls-2{fill:#52a161;}.cls-3{fill:#a9cb5f;}.cls-4{fill:#0a0b0c;}</style></defs><title>_GF_site</title><circle class="cls-1" cx="125.1" cy="114.45" r="109.32"/><path class="cls-2" d="M86.94,76.55a35.79,35.79,0,0,1,9.77-17.89c8.6-8.43,23.82-14.57,45.56,8.77,35.8,38.45,35.36,98.12,0,104.75C107.77,178.65,69.49,155.66,86.94,76.55Z"/><path class="cls-3" d="M104.2,92.38a19.88,19.88,0,0,1,5.43-9.94c4.78-4.68,13.23-8.09,25.3,4.87,19.88,21.36,19.64,54.5,0,58.18C115.77,149.09,94.51,136.32,104.2,92.38Z"/><circle class="cls-4" cx="133.1" cy="152.32" r="1.16" transform="translate(-50.53 67.48) rotate(-24.05)"/><circle class="cls-4" cx="140.19" cy="151.16" r="1.16" transform="translate(-49.44 70.27) rotate(-24.05)"/><path class="cls-4" d="M134,156.14s5.67,4.48,7.35-2"/></svg>