<svg id="Слой_1" data-name="Слой 1" xmlns="http://www.w3.org/2000/svg" xmlns:xlink="http://www.w3.org/1999/xlink" viewBox="0 0 250.19 228.89"><defs><style>.cls-1{fill:none;}.cls-2{fill:#eab6d2;}.cls-3{clip-path:url(#clip-path);}.cls-4{fill:#da6f59;}.cls-5{fill:#0a0b0c;}</style><clipPath id="clip-path"><path class="cls-1" d="M202.63,221.49H47.56a30.72,30.72,0,0,1-30.63-30.63V35.78A30.72,30.72,0,0,1,47.56,5.15H202.63a30.72,30.72,0,0,1,30.63,30.63V190.86A30.72,30.72,0,0,1,202.63,221.49Z"/></clipPath></defs><title>_GF_site</title><path class="cls-2" d="M202.63,221.49H47.56a30.72,30.72,0,0,1-30.63-30.63V35.78A30.72,30.72,0,0,1,47.56,5.15H202.63a30.72,30.72,0,0,1,30.63,30.63V190.86A30.72,30.72,0,0,1,202.63,221.49Z"/><g class="cls-3"><path class="cls-4" d="M170,.09s-59.64-53.57,19.09-67.45S342.54-81.57,357-54.21s-.19,41.33-16.19,47.53S451.41-51.63,446.09,45.43s-135.49,158.45-208.54,150-156.77-29-165-130.07S170,.09,170,.09Z"/></g><circle class="cls-5" cx="134.18" cy="65.82" r="4.89" transform="translate(-9.39 24.28) rotate(-9.99)"/><circle class="cls-5" cx="167.72" cy="67.9" r="4.89" transform="translate(-9.24 30.14) rotate(-9.99)"/><path class="cls-5" d="M132,81.44a39.4,39.4,0,0,0,7.54,4.91,20.06,20.06,0,0,0,8.26,2.15l1.06.06c.35,0,.7-.08,1.05-.12A10.88,10.88,0,0,0,152,88.1l2.07-.56,2-.88,1-.44.93-.59,1.91-1.16c1.23-.86,2.38-1.84,3.68-2.71a41.44,41.44,0,0,1-2.91,3.64L158.87,87l-.91.77-1,.62A15.92,15.92,0,0,1,147.69,91,18,18,0,0,1,138.56,88,21.3,21.3,0,0,1,132,81.44Z"/></svg>