<svg width="78" height="37" viewBox="0 0 78 37" fill="none" xmlns="http://www.w3.org/2000/svg">
<path d="M19.9933 16.022C19.277 16.022 18.5919 15.9078 18.0002 15.6793C17.4085 15.4509 16.8791 15.1082 16.4431 14.6893C16.0071 14.2705 15.6957 13.7755 15.4466 13.1663C15.1974 12.5951 15.104 11.9859 15.104 11.3005C15.104 10.5771 15.2286 9.92978 15.4777 9.35864C15.7268 8.74942 16.1005 8.25442 16.5677 7.79751C17.0348 7.34059 17.5954 6.9979 18.2182 6.76945C18.841 6.54099 19.5573 6.42676 20.3359 6.42676C21.1456 6.42676 21.8307 6.54099 22.4535 6.80752C23.0764 7.07406 23.5746 7.45482 23.9172 7.94981V6.54099H27.4362V14.9939C27.4362 15.9459 27.156 16.8216 26.5954 17.5451C26.0348 18.2685 25.2251 18.8397 24.1975 19.2204C23.1698 19.6012 21.9864 19.8296 20.6161 19.8296C19.4327 19.8296 18.4051 19.6773 17.5019 19.3727C16.5988 19.0681 15.8203 18.6112 15.1351 18.0401L17.2839 16.1743C17.6888 16.4789 18.1871 16.7835 18.7788 16.9739C19.3705 17.2024 19.9622 17.3166 20.6161 17.3166C21.1144 17.3166 21.5815 17.2404 21.9864 17.1262C22.3912 16.9739 22.7338 16.7835 23.0141 16.4789C23.2632 16.1743 23.3878 15.7555 23.3878 15.1843V14.5751C23.0764 15.0701 22.6092 15.4128 21.9864 15.6793C21.3635 15.9078 20.7096 16.022 19.9933 16.022ZM21.4258 13.3186C21.6127 13.3186 21.7995 13.2805 21.9864 13.2424C22.1732 13.2044 22.3289 13.1282 22.4847 13.052C22.6404 12.9759 22.7961 12.8617 22.9518 12.7474C23.1075 12.6332 23.2321 12.4809 23.3566 12.3286V10.6532C23.2321 10.3486 23.0452 10.1202 22.8272 9.89171C22.6092 9.66325 22.3601 9.51094 22.0798 9.39671C21.7995 9.28249 21.5193 9.24441 21.239 9.24441C20.9587 9.24441 20.6784 9.28249 20.4293 9.39671C20.1801 9.51094 19.9622 9.66325 19.7753 9.85363C19.5884 10.044 19.4327 10.2725 19.3393 10.539C19.2459 10.8055 19.1836 11.0721 19.1836 11.3386C19.1836 11.6432 19.2459 11.8717 19.3393 12.1382C19.4327 12.3667 19.5884 12.5951 19.8064 12.7474C19.9933 12.9378 20.2424 13.052 20.5227 13.1663C20.8341 13.2805 21.1144 13.3186 21.4258 13.3186Z" fill="#A2C858"/>
<path d="M35.097 16.022C34.1005 16.022 33.2285 15.9078 32.45 15.6412C31.6714 15.3747 31.0486 15.032 30.5191 14.5751C29.9897 14.1182 29.616 13.6232 29.3358 13.052C29.0866 12.4809 28.9309 11.8717 28.9309 11.2244C28.9309 10.5771 29.0555 9.96786 29.3358 9.39671C29.5849 8.82557 29.9897 8.2925 30.5191 7.87366C31.0486 7.41674 31.6714 7.07406 32.45 6.80752C33.2285 6.54099 34.1005 6.42676 35.097 6.42676C36.0936 6.42676 36.9967 6.54099 37.7441 6.80752C38.4915 7.07406 39.1455 7.41674 39.6749 7.87366C40.2043 8.33058 40.578 8.82557 40.8583 9.39671C41.1074 9.96786 41.2631 10.5771 41.2631 11.2244C41.2631 11.8717 41.1386 12.4428 40.8583 13.052C40.6092 13.6232 40.2043 14.1563 39.6749 14.5751C39.1455 15.032 38.5226 15.3747 37.7441 15.6412C36.9967 15.8697 36.1247 16.022 35.097 16.022ZM33.1351 11.2244C33.1351 11.6432 33.2285 11.9859 33.3842 12.2524C33.5399 12.5571 33.7891 12.7855 34.1005 12.9378C34.4119 13.0901 34.7545 13.1663 35.1282 13.1663C35.5019 13.1663 35.8444 13.0901 36.1558 12.9378C36.4673 12.7855 36.6853 12.5571 36.8721 12.2524C37.0278 11.9478 37.1212 11.6051 37.1212 11.2244C37.1212 10.8055 37.0278 10.4629 36.8721 10.1963C36.7164 9.89171 36.4673 9.66325 36.1558 9.51094C35.8444 9.35864 35.5019 9.28249 35.1282 9.28249C34.7545 9.28249 34.4119 9.35864 34.1005 9.51094C33.7891 9.66325 33.5711 9.89171 33.3842 10.1963C33.1974 10.4629 33.1351 10.8055 33.1351 11.2244Z" fill="#A2C858"/>
<path d="M48.3014 16.022C47.3048 16.022 46.4328 15.9078 45.6543 15.6412C44.8757 15.3747 44.2529 15.032 43.7235 14.5751C43.1941 14.1182 42.8204 13.6232 42.5401 13.052C42.291 12.4809 42.1353 11.8717 42.1353 11.2244C42.1353 10.5771 42.2598 9.96786 42.5401 9.39671C42.7892 8.82557 43.1941 8.2925 43.7235 7.87366C44.2529 7.41674 44.8757 7.07406 45.6543 6.80752C46.4328 6.54099 47.3048 6.42676 48.3014 6.42676C49.2979 6.42676 50.201 6.54099 50.9484 6.80752C51.6958 7.07406 52.3498 7.41674 52.8792 7.87366C53.4087 8.33058 53.7824 8.82557 54.0626 9.39671C54.3118 9.96786 54.4675 10.5771 54.4675 11.2244C54.4675 11.8717 54.3429 12.4428 54.0626 13.052C53.8135 13.6232 53.4087 14.1563 52.8792 14.5751C52.3498 15.032 51.727 15.3747 50.9484 15.6412C50.201 15.8697 49.3291 16.022 48.3014 16.022ZM46.3083 11.2244C46.3083 11.6432 46.4017 11.9859 46.5574 12.2524C46.7131 12.5571 46.9623 12.7855 47.2737 12.9378C47.5851 13.0901 47.9277 13.1663 48.3014 13.1663C48.6751 13.1663 49.0176 13.0901 49.3291 12.9378C49.6405 12.7855 49.8585 12.5571 50.0453 12.2524C50.201 11.9478 50.2945 11.6051 50.2945 11.2244C50.2945 10.8055 50.201 10.4629 50.0453 10.1963C49.8896 9.89171 49.6405 9.66325 49.3291 9.51094C49.0176 9.35864 48.6751 9.28249 48.3014 9.28249C47.9277 9.28249 47.5851 9.35864 47.2737 9.51094C46.9623 9.66325 46.7443 9.89171 46.5574 10.1963C46.4017 10.4629 46.3083 10.8055 46.3083 11.2244Z" fill="#A2C858"/>
<path d="M55.3704 11.1863C55.3704 10.2725 55.5884 9.43479 55.9932 8.74941C56.398 8.02596 56.9897 7.45482 57.7371 7.03598C58.4846 6.61714 59.3254 6.42676 60.2908 6.42676C61.0071 6.42676 61.6922 6.57906 62.2839 6.8456C62.9067 7.11213 63.3739 7.49289 63.6853 7.98789V2.77142H67.7337V12.0621C67.7337 12.3667 67.796 12.5951 67.8894 12.7474C68.014 12.8617 68.2009 12.9378 68.4811 12.9759V15.8316C67.796 15.9458 67.2043 16.022 66.7683 16.022C66.0832 16.022 65.5538 15.9078 65.1489 15.7174C64.7441 15.4889 64.495 15.1843 64.3704 14.7274L64.277 14.3847C63.9033 14.9559 63.3738 15.3747 62.7199 15.6412C62.0659 15.9078 61.3808 16.022 60.6334 16.022C59.8548 16.022 59.1697 15.9078 58.5157 15.6793C57.8617 15.4509 57.3012 15.1082 56.834 14.6893C56.3669 14.2705 55.9932 13.7374 55.7441 13.1663C55.4949 12.5571 55.3704 11.9098 55.3704 11.1863ZM63.7164 12.2144V10.6152C63.5918 10.3486 63.405 10.1202 63.187 9.92978C62.969 9.7394 62.7199 9.58709 62.4396 9.47287C62.1593 9.35864 61.879 9.28248 61.5988 9.28248C61.2873 9.28248 61.0382 9.32056 60.7891 9.43479C60.5399 9.54902 60.3219 9.66325 60.1351 9.85363C59.9482 10.044 59.7925 10.2344 59.6991 10.5009C59.6057 10.7294 59.5434 10.9959 59.5434 11.2625C59.5434 11.5671 59.6057 11.7955 59.6991 12.024C59.7925 12.2524 59.9482 12.4428 60.1662 12.6332C60.3531 12.7855 60.6022 12.9378 60.8825 13.014C61.1628 13.0901 61.443 13.1663 61.7856 13.1663C61.9725 13.1663 62.1593 13.1282 62.3462 13.0901C62.5019 13.052 62.6887 12.9759 62.8444 12.8997C63.0001 12.8236 63.1559 12.7094 63.3116 12.5951C63.4361 12.519 63.5607 12.3667 63.7164 12.2144Z" fill="#A2C858"/>
<path d="M35.1593 2.46681C34.6298 2.46681 34.1939 2.1622 33.9136 1.70528C33.4776 0.981828 32.8236 0.562988 32.1073 0.562988H32.0139C32.0139 2.69527 33.4464 4.44678 35.1904 4.44678C36.9343 4.44678 38.3669 2.69527 38.3669 0.562988H38.2735C37.5572 0.562988 36.8721 1.0199 36.4672 1.70528C36.1247 2.1622 35.6575 2.46681 35.1593 2.46681Z" fill="#A2C858"/>
<path d="M2.21108 36.4309V27.2164H0V23.1423H2.21108V21.505C2.21108 20.2485 2.49136 19.1443 3.02077 18.1923C3.58133 17.2404 4.32874 16.517 5.32528 16.022C6.32182 15.4889 7.47408 15.2605 8.78204 15.2605C9.56059 15.2605 10.3703 15.3366 11.18 15.4889C11.9897 15.6412 12.8616 15.8316 13.7648 16.1362L12.6748 20.2485C12.3011 20.1342 11.8962 20.02 11.4291 19.9439C10.962 19.8677 10.5883 19.8296 10.2457 19.8296C9.7163 19.8296 9.3426 19.9439 9.06232 20.1723C8.81318 20.4008 8.65747 20.7815 8.65747 21.2765V23.1042H12.5814V27.2164H8.71976V36.4309H2.21108Z" fill="#A2C858"/>
<path d="M23.6991 36.7355C22.1109 36.7355 20.6784 36.5452 19.4638 36.1263C18.2181 35.7075 17.1905 35.1363 16.3808 34.4129C15.5399 33.6894 14.9171 32.8518 14.5122 31.9379C14.0763 31.0241 13.8894 30.0341 13.8894 29.0441C13.8894 28.0161 14.1074 27.0641 14.5122 26.1122C14.9482 25.1984 15.5711 24.3607 16.3808 23.6373C17.2216 22.9138 18.2493 22.3427 19.4638 21.9619C20.7095 21.5431 22.1109 21.3527 23.6991 21.3527C25.3185 21.3527 26.751 21.5431 27.9656 21.9619C29.1801 22.3808 30.2078 22.9519 31.0486 23.6373C31.8895 24.3607 32.5123 25.1603 32.9172 26.1122C33.3531 27.0261 33.54 28.0161 33.54 29.0441C33.54 30.0722 33.322 31.0241 32.9172 31.9379C32.4812 32.8518 31.8583 33.6894 31.0486 34.4129C30.2078 35.1363 29.1801 35.7075 27.9656 36.1263C26.751 36.5071 25.3185 36.7355 23.6991 36.7355ZM20.5226 29.0441C20.5226 29.6914 20.6472 30.2245 20.9275 30.7195C21.2078 31.1764 21.5815 31.5572 22.0486 31.7856C22.5157 32.0522 23.0763 32.1664 23.6991 32.1664C24.322 32.1664 24.8514 32.0522 25.3497 31.7856C25.8168 31.5191 26.1905 31.1764 26.4708 30.7195C26.751 30.2626 26.8756 29.6914 26.8756 29.0441C26.8756 28.3968 26.751 27.8638 26.4708 27.3688C26.1905 26.9118 25.8168 26.5311 25.3497 26.3026C24.8825 26.0361 24.322 25.9219 23.6991 25.9219C23.0763 25.9219 22.5469 26.0361 22.0486 26.3026C21.5815 26.5692 21.2078 26.9118 20.9275 27.3688C20.6472 27.8257 20.5226 28.3968 20.5226 29.0441Z" fill="#A2C858"/>
<path d="M44.8444 36.7355C43.2562 36.7355 41.8236 36.5452 40.6091 36.1263C39.3634 35.7075 38.3357 35.1363 37.526 34.4129C36.6852 33.6894 36.0624 32.8518 35.6575 31.9379C35.2215 31.0241 35.0347 30.0341 35.0347 29.0441C35.0347 28.0161 35.2527 27.0641 35.6575 26.1122C36.0935 25.1984 36.7163 24.3607 37.526 23.6373C38.3669 22.9138 39.3945 22.3427 40.6091 21.9619C41.8548 21.5431 43.2562 21.3527 44.8444 21.3527C46.4638 21.3527 47.8963 21.5431 49.1108 21.9619C50.3254 22.3808 51.3531 22.9519 52.1939 23.6373C53.0347 24.3607 53.6576 25.1603 54.0624 26.1122C54.4984 27.0261 54.6853 28.0161 54.6853 29.0441C54.6853 30.0722 54.4673 31.0241 54.0624 31.9379C53.6264 32.8518 53.0036 33.6894 52.1939 34.4129C51.3531 35.1363 50.3254 35.7075 49.1108 36.1263C47.8963 36.5071 46.4638 36.7355 44.8444 36.7355ZM41.6679 29.0441C41.6679 29.6914 41.7925 30.2245 42.0728 30.7195C42.353 31.1764 42.7267 31.5572 43.1939 31.7856C43.661 32.0522 44.2216 32.1664 44.8444 32.1664C45.4672 32.1664 45.9966 32.0522 46.4949 31.7856C46.9621 31.5191 47.3358 31.1764 47.616 30.7195C47.8963 30.2626 48.0209 29.6914 48.0209 29.0441C48.0209 28.3968 47.8963 27.8638 47.616 27.3688C47.3358 26.9118 46.9621 26.5311 46.4949 26.3026C46.0278 26.0361 45.4672 25.9219 44.8444 25.9219C44.2216 25.9219 43.6921 26.0361 43.1939 26.3026C42.7267 26.5692 42.353 26.9118 42.0728 27.3688C41.7925 27.8257 41.6679 28.3968 41.6679 29.0441Z" fill="#A2C858"/>
<path d="M56.1802 29.0063C56.1802 27.5594 56.5227 26.2267 57.1767 25.0844C57.8618 23.9421 58.765 23.0283 59.9795 22.3429C61.1629 21.6575 62.5331 21.3529 64.0591 21.3529C65.2114 21.3529 66.3013 21.5814 67.2667 22.0383C68.2321 22.4952 68.9795 23.1044 69.4778 23.904V15.5272H75.9865V30.4151C75.9865 30.9482 76.0799 31.2909 76.2668 31.4812C76.4536 31.6716 76.765 31.7858 77.2322 31.8239V36.3931C76.111 36.5835 75.2079 36.6977 74.4917 36.6977C73.4017 36.6977 72.5297 36.5073 71.9069 36.1646C71.2529 35.8219 70.8481 35.2889 70.6612 34.6035L70.5366 34.0704C69.9138 34.9843 69.073 35.6696 68.0453 36.0885C66.9864 36.5073 65.8653 36.7358 64.6819 36.7358C63.4363 36.7358 62.3152 36.5454 61.2875 36.1646C60.2598 35.7839 59.3567 35.2508 58.5781 34.5654C57.7996 33.88 57.239 33.0804 56.803 32.1285C56.367 31.1766 56.1802 30.1486 56.1802 29.0063ZM69.5089 30.6436V28.0544C69.291 27.6355 69.0107 27.2548 68.6681 26.9501C68.3256 26.6455 67.9207 26.379 67.4847 26.1886C67.0487 25.9982 66.6127 25.9221 66.1456 25.9221C65.6785 25.9221 65.2425 25.9982 64.8376 26.1505C64.4328 26.3029 64.0902 26.5313 63.7788 26.8359C63.4674 27.1405 63.2494 27.4832 63.0937 27.864C62.938 28.2447 62.8446 28.6636 62.8446 29.0824C62.8446 29.5393 62.938 29.9582 63.0937 30.3389C63.2494 30.7197 63.4985 31.0243 63.8411 31.2909C64.1525 31.5574 64.5262 31.7478 64.9622 31.9001C65.3982 32.0524 65.8653 32.1285 66.3947 32.1285C66.7062 32.1285 67.0176 32.0905 67.2979 32.0143C67.5781 31.9382 67.8273 31.862 68.0764 31.7478C68.3256 31.6335 68.5747 31.4812 68.8238 31.2909C69.073 31.1005 69.291 30.9101 69.5089 30.6436Z" fill="#A2C858"/>
</svg>
